<svg width="67" height="67" viewBox="0 0 67 67" fill="none" xmlns="http://www.w3.org/2000/svg">
<path d="M26.6504 45.75L35.8943 49.25C35.8943 49.25 59.0041 44 62.0854 44C65.1667 44 65.1667 47.5 62.0854 51C59.0041 54.5 48.2195 65 38.9756 65C29.7317 65 23.5691 59.75 17.4065 59.75H2" stroke="#FFA61A" stroke-width="4" stroke-linecap="round" stroke-linejoin="round"/>
<path d="M2 38.75C5.0813 35.25 11.2439 30 17.4065 30C23.5691 30 38.2053 37 40.5163 40.5C42.8272 44 35.8943 49.2499 35.8943 49.2499M20.4878 19.5V5.5C20.4878 4.57174 20.8124 3.6815 21.3903 3.02513C21.9682 2.36875 22.7519 2 23.5691 2H60.5447C61.3619 2 62.1457 2.36875 62.7235 3.02513C63.3014 3.6815 63.626 4.57174 63.626 5.5V33.5" stroke="#FFA61A" stroke-width="4" stroke-linecap="round" stroke-linejoin="round"/>
<path d="M34.354 2H49.7605V17.75H34.354V2Z" stroke="#FFA61A" stroke-width="4" stroke-linecap="round" stroke-linejoin="round"/>
</svg>
