<svg width="81" height="66" viewBox="0 0 81 66" fill="none" xmlns="http://www.w3.org/2000/svg">
<path d="M4.43617 4.171V0.920898C3.47174 0.920898 2.54682 1.26332 1.86487 1.87283C1.18292 2.48234 0.799805 3.30902 0.799805 4.171H4.43617ZM44.4362 4.171H48.0725C48.0725 3.30902 47.6894 2.48234 47.0075 1.87283C46.3255 1.26332 45.4006 0.920898 44.4362 0.920898V4.171ZM44.4362 23.6716V20.4215C43.4717 20.4215 42.5468 20.7639 41.8649 21.3735C41.1829 21.983 40.7998 22.8096 40.7998 23.6716H44.4362ZM4.43617 7.42111H44.4362V0.920898H4.43617V7.42111ZM40.7998 4.171V56.1727H48.0725V4.171H40.7998ZM8.07253 49.6725V4.171H0.799805V49.6725H8.07253ZM44.4362 26.9217H62.618V20.4215H44.4362V26.9217ZM73.5271 36.672V49.6725H80.7998V36.672H73.5271ZM48.0725 56.1727V23.6716H40.7998V56.1727H48.0725ZM65.1889 58.4705C64.507 59.0798 63.5822 59.4221 62.618 59.4221C61.6538 59.4221 60.729 59.0798 60.0471 58.4705L54.9053 63.0661C56.951 64.894 59.7253 65.9209 62.618 65.9209C65.5107 65.9209 68.285 64.894 70.3307 63.0661L65.1889 58.4705ZM60.0471 53.8748C60.729 53.2655 61.6538 52.9233 62.618 52.9233C63.5822 52.9233 64.507 53.2655 65.1889 53.8748L70.3307 49.2792C68.285 47.4513 65.5107 46.4244 62.618 46.4244C59.7253 46.4244 56.951 47.4513 54.9053 49.2792L60.0471 53.8748ZM21.5525 58.4705C20.8706 59.0798 19.9459 59.4221 18.9816 59.4221C18.0174 59.4221 17.0926 59.0798 16.4107 58.4705L11.2689 63.0661C13.3147 64.894 16.0889 65.9209 18.9816 65.9209C21.8743 65.9209 24.6486 64.894 26.6944 63.0661L21.5525 58.4705ZM16.4107 53.8748C17.0926 53.2655 18.0174 52.9233 18.9816 52.9233C19.9459 52.9233 20.8706 53.2655 21.5525 53.8748L26.6944 49.2792C24.6486 47.4513 21.8743 46.4244 18.9816 46.4244C16.0889 46.4244 13.3147 47.4513 11.2689 49.2792L16.4107 53.8748ZM65.1889 53.8748C65.9016 54.5086 66.2543 55.3374 66.2543 56.1727H73.5271C73.5271 53.6831 72.4616 51.1805 70.3307 49.2792L65.1889 53.8748ZM66.2543 56.1727C66.2554 56.5996 66.1618 57.0225 65.979 57.4169C65.7961 57.8113 65.5276 58.1694 65.1889 58.4705L70.3307 63.0661C71.3448 62.1616 72.1491 61.0871 72.6976 59.9041C73.2461 58.7212 73.528 57.4532 73.5271 56.1727H66.2543ZM55.3453 52.9226H44.4362V59.4228H55.3453V52.9226ZM60.0471 58.4705C59.7084 58.1694 59.4399 57.8113 59.257 57.4169C59.0741 57.0225 58.9805 56.5996 58.9816 56.1727H51.7089C51.7089 58.6623 52.7743 61.1648 54.9053 63.0661L60.0471 58.4705ZM58.9816 56.1727C58.9797 55.7456 59.073 55.3225 59.2559 54.928C59.4388 54.5335 59.7078 54.1755 60.0471 53.8748L54.9053 49.2792C53.8912 50.1838 53.0869 51.2583 52.5384 52.4412C51.9899 53.6241 51.708 54.8922 51.7089 56.1727H58.9816ZM16.4107 58.4705C16.0721 58.1694 15.8035 57.8113 15.6206 57.4169C15.4378 57.0225 15.3442 56.5996 15.3453 56.1727H8.07253C8.07253 58.6623 9.13799 61.1648 11.2689 63.0661L16.4107 58.4705ZM15.3453 56.1727C15.3434 55.7456 15.4366 55.3225 15.6195 54.928C15.8024 54.5335 16.0714 54.1755 16.4107 53.8748L11.2689 49.2792C10.2549 50.1838 9.45053 51.2583 8.90203 52.4412C8.35354 53.6241 8.07165 54.8922 8.07253 56.1727H15.3453ZM44.4362 52.9226H26.2544V59.4228H44.4362V52.9226ZM21.5525 53.8748C22.2653 54.5086 22.618 55.3374 22.618 56.1727H29.8907C29.8907 53.6831 28.8253 51.1805 26.6944 49.2792L21.5525 53.8748ZM22.618 56.1727C22.6191 56.5996 22.5255 57.0225 22.3426 57.4169C22.1597 57.8113 21.8912 58.1694 21.5525 58.4705L26.6944 63.0661C27.7084 62.1616 28.5127 61.0871 29.0612 59.9041C29.6097 58.7212 29.8916 57.4532 29.8907 56.1727H22.618ZM73.5271 49.6725C73.5271 50.5344 73.144 51.3611 72.462 51.9706C71.7801 52.5801 70.8551 52.9226 69.8907 52.9226V59.4228C72.784 59.4228 75.5588 58.3955 77.6046 56.567C79.6505 54.7384 80.7998 52.2584 80.7998 49.6725H73.5271ZM62.618 26.9217C65.5113 26.9217 68.286 27.949 70.3319 29.7775C72.3777 31.6061 73.5271 34.0861 73.5271 36.672H80.7998C80.7998 34.538 80.3295 32.4248 79.4158 30.4532C78.5021 28.4816 77.1628 26.6902 75.4745 25.1812C73.7861 23.6722 71.7818 22.4752 69.5759 21.6585C67.3699 20.8419 65.0057 20.4215 62.618 20.4215V26.9217ZM0.799805 49.6725C0.799805 52.2584 1.94915 54.7384 3.995 56.567C6.04085 58.3955 8.81563 59.4228 11.7089 59.4228V52.9226C10.7445 52.9226 9.81955 52.5801 9.1376 51.9706C8.45565 51.3611 8.07253 50.5344 8.07253 49.6725H0.799805Z" fill="#FFA61A"/>
</svg>
