<svg width="31" height="31" viewBox="0 0 31 31" fill="none" xmlns="http://www.w3.org/2000/svg">
<path d="M28.5139 30.312C24.9306 30.312 21.4378 29.5131 18.0356 27.9153C14.6334 26.3176 11.6195 24.2065 8.99392 21.582C6.36836 18.9576 4.25725 15.9437 2.66058 12.5403C1.06392 9.13701 0.265027 5.64423 0.263916 2.06201C0.263916 1.56201 0.430583 1.14534 0.763916 0.812012C1.09725 0.478678 1.51392 0.312012 2.01392 0.312012H8.76392C9.15281 0.312012 9.50003 0.437012 9.80558 0.687012C10.1111 0.937012 10.2917 1.25646 10.3472 1.64534L11.4306 7.47868C11.4861 7.86757 11.4789 8.22201 11.4089 8.54201C11.3389 8.86201 11.1795 9.14646 10.9306 9.39534L6.88892 13.4787C8.05558 15.4787 9.52114 17.3537 11.2856 19.1037C13.05 20.8537 14.9872 22.3676 17.0972 23.6453L21.0139 19.7287C21.2639 19.4787 21.5906 19.2909 21.9939 19.1653C22.3972 19.0398 22.7928 19.0053 23.1806 19.062L28.9306 20.2287C29.3195 20.312 29.6389 20.4998 29.8889 20.792C30.1389 21.0842 30.2639 21.4242 30.2639 21.812V28.562C30.2639 29.062 30.0972 29.4787 29.7639 29.812C29.4306 30.1453 29.0139 30.312 28.5139 30.312ZM5.30558 10.312L8.05558 7.56201L7.34725 3.64534H3.63892C3.77781 4.78423 3.97225 5.90923 4.22225 7.02035C4.47225 8.13146 4.83336 9.22868 5.30558 10.312ZM20.2222 25.2287C21.3056 25.7009 22.41 26.0759 23.5356 26.3537C24.6611 26.6315 25.7928 26.812 26.9306 26.8953V23.2287L23.0139 22.437L20.2222 25.2287Z" fill="#FFB118"/>
</svg>
