<svg width="103" height="81" viewBox="0 0 103 81" fill="none" xmlns="http://www.w3.org/2000/svg">
<path d="M17.4411 6.14998C19.7744 3.11665 22.2244 1.36665 24.7911 0.899989C27.5911 0.433329 29.9244 0.899996 31.7911 2.29999C33.8911 3.69999 35.0577 5.79999 35.2911 8.59999C35.5244 11.4 34.3577 14.4333 31.7911 17.7C27.8244 22.6 25.0244 27.7333 23.3911 33.1C21.9911 38.2333 21.2911 42.9 21.2911 47.1L19.8911 39.05C26.4244 39.05 31.6744 41.0333 35.6411 45C39.8411 48.7333 41.9411 53.75 41.9411 60.05C41.9411 65.8833 40.0744 70.7833 36.3411 74.75C32.6077 78.4833 27.5911 80.35 21.2911 80.35C14.9911 80.35 9.85773 78.1333 5.89107 73.7C2.15773 69.2667 0.291066 62.9667 0.291066 54.8C0.291066 49.9 0.757733 44.7667 1.69107 39.4C2.85773 33.8 4.60773 28.2 6.94107 22.6C9.50773 17 13.0077 11.5167 17.4411 6.14998ZM77.6411 6.14998C79.9744 3.11665 82.4244 1.36665 84.9911 0.899989C87.7911 0.433329 90.1244 0.899996 91.9911 2.29999C94.0911 3.69999 95.2577 5.79999 95.4911 8.59999C95.7244 11.4 94.5577 14.4333 91.9911 17.7C88.0244 22.6 85.2244 27.7333 83.5911 33.1C82.1911 38.2333 81.4911 42.9 81.4911 47.1L80.0911 39.05C86.6244 39.05 91.8744 41.0333 95.8411 45C100.041 48.7333 102.141 53.75 102.141 60.05C102.141 65.8833 100.274 70.7833 96.5411 74.75C92.8077 78.4833 87.7911 80.35 81.4911 80.35C75.1911 80.35 70.0577 78.1333 66.0911 73.7C62.3577 69.2667 60.4911 62.9667 60.4911 54.8C60.4911 49.9 60.9577 44.7667 61.8911 39.4C63.0577 33.8 64.8077 28.2 67.1411 22.6C69.7077 17 73.2077 11.5167 77.6411 6.14998Z" fill="#FFB118"/>
</svg>
