<svg width="21" height="21" viewBox="0 0 21 21" fill="none" xmlns="http://www.w3.org/2000/svg">
<path d="M9.47199 1.12064C9.58203 0.931795 9.73967 0.775109 9.92917 0.666209C10.1187 0.557309 10.3334 0.5 10.552 0.5C10.7706 0.5 10.9853 0.557309 11.1748 0.666209C11.3643 0.775109 11.5219 0.931795 11.632 1.12064L14.427 5.91864L19.855 7.09464C20.0685 7.14103 20.2661 7.24258 20.4282 7.38917C20.5902 7.53575 20.711 7.72225 20.7784 7.93006C20.8459 8.13787 20.8578 8.35974 20.8128 8.57355C20.7678 8.78737 20.6675 8.98565 20.522 9.14863L16.822 13.2896L17.382 18.8146C17.4041 19.0322 17.3687 19.2517 17.2794 19.4513C17.1901 19.651 17.05 19.8237 16.8731 19.9522C16.6962 20.0807 16.4887 20.1606 16.2712 20.1838C16.0538 20.2071 15.8341 20.1729 15.634 20.0846L10.552 17.8446L5.46999 20.0846C5.26991 20.1729 5.05018 20.2071 4.83274 20.1838C4.6153 20.1606 4.40777 20.0807 4.23086 19.9522C4.05395 19.8237 3.91385 19.651 3.82456 19.4513C3.73526 19.2517 3.6999 19.0322 3.72199 18.8146L4.28199 13.2896L0.581987 9.14964C0.436215 8.98666 0.335743 8.7883 0.290601 8.57435C0.245459 8.36041 0.257227 8.13837 0.324731 7.93039C0.392234 7.72242 0.513111 7.53579 0.675293 7.38913C0.837476 7.24248 1.03529 7.14093 1.24899 7.09464L6.67699 5.91864L9.47199 1.12064Z" fill="#FEC14C"/>
</svg>
